<svg width="107" height="118" viewBox="0 0 107 118" fill="none" xmlns="http://www.w3.org/2000/svg">
<path d="M42.4696 117.918C24.4452 117.918 4.53213 117.579 2.71805 116.116C1.30791 114.981 0.234379 111.551 0.307161 79.336C0.363567 73.8683 0.525506 70.0254 0.712919 65.5766C0.845745 62.3979 0.993128 58.9007 1.12595 54.2663C1.35522 47.8434 0.922166 39.1769 0.461822 30.0028C0.305341 26.895 0.145222 23.7035 0.00511731 20.4684C-0.0603861 18.9691 0.505491 17.4953 1.55719 16.4235C2.61252 15.3482 4.07907 14.7277 5.58383 14.7932L20.9116 15.1772L20.8207 18.8144L5.49285 18.4305C4.99976 18.4305 4.50848 18.6106 4.15367 18.9727C3.80068 19.333 3.61872 19.8061 3.64056 20.3083C3.78248 23.5343 3.9426 26.7203 4.09544 29.819C4.55761 39.0732 4.99612 47.8143 4.7614 54.381C4.62857 59.0244 4.48119 62.5362 4.34654 65.7276C4.16095 70.1455 4.00083 73.9629 3.94442 79.3578C3.88984 103.489 4.52486 111.22 5.12348 113.212C9.44307 114.082 35.2478 114.411 57.8301 114.206C77.3229 113.915 98.6515 113.223 102.88 112.528C103.042 111.218 102.807 108.157 102.66 106.229C102.562 104.942 102.467 103.698 102.429 102.659C101.776 88.5356 101.859 69.2066 101.934 52.152C101.998 37.603 102.063 22.5936 101.506 19.0819C100.364 18.8817 97.1267 18.5506 88.009 18.3777L88.0782 14.7387C102.964 15.0225 103.604 15.6957 104.281 16.4072C105.533 17.7227 105.702 22.4007 105.573 52.1684C105.498 69.1793 105.417 88.4592 106.066 102.508C106.104 103.523 106.195 104.717 106.29 105.95C106.727 111.658 106.779 114.106 105.513 115.328C104.943 115.878 103.612 117.162 57.8738 117.845C53.2922 117.885 47.97 117.918 42.4696 117.918ZM33.4301 18.6052L33.3737 14.9661C50.2244 14.7059 64.4114 14.5967 75.5415 14.6204L75.5306 18.2595C64.4296 18.2304 50.259 18.345 33.4301 18.6052Z" fill="#013A31"/>
<path d="M29.1778 31.6804L25.3404 31.6768C23.7265 31.7423 22.1817 31.1345 21.019 29.9773C19.849 28.811 19.234 27.2371 19.2886 25.5413L19.043 8.81788C19.012 6.68719 19.8126 4.67478 21.301 3.14819C22.7876 1.62341 24.78 0.76823 26.9106 0.744576H27.0016C31.334 0.744576 34.8948 4.24355 34.9585 8.58679L35.2041 25.4357C35.0931 28.891 32.4566 31.5949 29.2033 31.6804H29.1778ZM25.2749 28.0395L29.1268 28.0431C30.426 27.9977 31.5177 26.8168 31.565 25.403L31.3194 8.64138C31.2848 6.26688 29.3306 4.39821 26.9525 4.38548C25.7971 4.39821 24.7163 4.8622 23.9084 5.69009C23.1005 6.51798 22.6657 7.61152 22.6839 8.76693L22.9277 25.5758C22.904 26.3364 23.1387 26.9551 23.5882 27.4008C24.0267 27.8375 24.6326 28.0941 25.2749 28.0413V28.0395Z" fill="#013A31"/>
<path d="M79.9939 31.2292C76.6714 31.2292 73.8548 28.4489 73.6947 24.9281L73.469 8.13011C73.4399 5.98487 74.2496 3.9579 75.7471 2.42221C77.2446 0.886518 79.2552 0.0258756 81.4004 0.000402075C85.7782 -0.0432669 89.4209 3.47572 89.5119 7.85718L89.8595 24.637C89.7466 28.1487 86.9118 31.0272 83.5402 31.1528L80.2122 31.2255C80.1395 31.2292 80.0667 31.2292 79.9939 31.2292ZM81.4914 3.63948H81.4423C80.2687 3.65222 79.1733 4.12348 78.3545 4.96229C77.5357 5.8011 77.0936 6.90738 77.1099 8.07916L77.3337 24.8189C77.4047 26.3437 78.6729 27.6592 80.1085 27.5865L83.4201 27.5137C84.8921 27.4518 86.1749 26.1272 86.224 24.6133L85.8747 7.92996C85.8255 5.55364 83.8659 3.63766 81.4932 3.63766L81.4914 3.63948Z" fill="#013A31"/>
<path fill-rule="evenodd" clip-rule="evenodd" d="M29.1542 29.8609L25.3423 29.8572C22.9332 29.9464 21.03 28.0395 21.1082 25.5995L20.9899 17.5117C20.9681 17.5117 20.9481 17.5117 20.9262 17.5135L3.10749 18.0593C3.27125 19.7297 3.26215 21.1871 3.20938 22.4117C3.11476 23.3997 3.06564 23.8946 2.88186 25.141C2.88186 25.141 2.62349 27.4937 2.49612 29.8227C2.39605 31.5403 2.42334 33.9639 2.99468 37.1372C8.55701 36.1328 16.9651 34.9792 27.1545 34.5971C37.3967 34.2569 44.24 34.9301 50.492 35.5469C52.2897 35.7234 54.0401 35.8963 55.8068 36.0382C66.6258 36.877 82.7615 37.2464 102.847 34.1059C102.784 33.7529 102.747 33.3599 102.713 32.9668C102.676 32.5738 102.642 32.1808 102.578 31.8278C102.289 29.9828 101.848 28.3852 101.437 26.8859C100.557 23.6835 99.7997 20.9287 100.891 17.1769C96.4754 17.3206 92.1522 17.4043 87.889 17.4462L88.0382 24.6715C87.9581 27.1261 85.8984 29.2404 83.4729 29.3314L80.1723 29.4042C77.7469 29.4933 75.6307 27.4354 75.5106 24.8426L75.4124 17.4734C70.5469 17.4516 65.727 17.3988 60.9088 17.3461C51.7984 17.246 42.688 17.1459 33.2645 17.2515L33.3846 25.4612C33.3046 27.8994 31.3959 29.8026 29.1542 29.8609Z" fill="#013A31"/>
<path d="M25.3422 29.8572V28.0377C25.3204 28.0377 25.2986 28.0377 25.2749 28.0377L25.3422 29.8572ZM29.1542 29.8609V31.6804C29.1687 31.6804 29.1851 31.6804 29.2015 31.6804L29.1542 29.8609ZM21.1082 25.5995L22.9277 25.6595C22.9277 25.6304 22.9277 25.6031 22.9277 25.574L21.1082 25.5995ZM20.9899 17.5116L22.8094 17.4843C22.8021 16.9967 22.6002 16.5309 22.2454 16.1943C21.8924 15.8577 21.4193 15.6757 20.9298 15.6921L20.9881 17.5116H20.9899ZM20.9262 17.5135L20.9826 19.333H20.9862L20.9262 17.5135ZM3.10744 18.0593L3.05103 16.2398C2.54702 16.2561 2.07212 16.4781 1.73914 16.8566C1.40617 17.2351 1.24605 17.7354 1.29517 18.2358L3.10562 18.0575L3.10744 18.0593ZM3.20933 22.4117L5.01977 22.5863C5.02341 22.5536 5.02523 22.5226 5.02705 22.4899L3.20933 22.4117ZM2.88181 25.141L1.08229 24.8735C1.07865 24.8953 1.07683 24.919 1.07319 24.9408L2.88181 25.1391V25.141ZM2.49607 29.8226L4.31197 29.9282V29.9209L2.49607 29.8226ZM2.99463 37.1372L1.2042 37.4611C1.28972 37.936 1.56083 38.3581 1.95749 38.6329C2.35415 38.9076 2.8436 39.015 3.3185 38.9294L2.99463 37.1372ZM27.1545 34.5971L27.0944 32.7776H27.0872L27.1545 34.5971ZM55.8068 36.0382L55.6612 37.8523H55.6667L55.8068 36.0382ZM102.847 34.1058L103.128 35.9035C103.612 35.8271 104.045 35.5597 104.328 35.1612C104.612 34.7627 104.723 34.2641 104.636 33.7838L102.846 34.1077L102.847 34.1058ZM102.578 31.8296L100.78 32.1116C100.782 32.1262 100.786 32.1389 100.788 32.1535L102.578 31.8296ZM100.891 17.1787L102.638 17.6881C102.802 17.1277 102.685 16.5236 102.329 16.0633C101.972 15.6029 101.415 15.3409 100.831 15.3609L100.891 17.1805V17.1787ZM87.8889 17.4479L87.8707 15.6284C87.3849 15.6339 86.9209 15.8322 86.5825 16.1815C86.2441 16.5309 86.0603 17.0003 86.0694 17.4862L87.8889 17.4479ZM88.0381 24.6733L89.8558 24.7334C89.8558 24.7006 89.8558 24.6679 89.8558 24.637L88.0363 24.6752L88.0381 24.6733ZM83.4729 29.3332L83.5129 31.1527C83.5129 31.1527 83.5311 31.1527 83.5402 31.1527L83.4729 29.3332ZM80.1722 29.406L80.1322 27.5864C80.1322 27.5864 80.114 27.5864 80.1049 27.5864L80.1722 29.406ZM75.5106 24.8444L73.691 24.868C73.691 24.888 73.691 24.9081 73.691 24.9281L75.5106 24.8444ZM75.4123 17.4752L77.2319 17.4516C77.2191 16.4599 76.4131 15.6612 75.4214 15.6557L75.4123 17.4752ZM33.2645 17.2533L33.2445 15.4337C32.7605 15.4392 32.2983 15.6375 31.9617 15.9832C31.6233 16.3289 31.4377 16.7966 31.445 17.2806L33.2645 17.2533ZM33.3846 25.463L35.2041 25.5231C35.2041 25.494 35.2041 25.4667 35.2041 25.4375L33.3846 25.463ZM25.3404 31.6768L29.1523 31.6804L29.156 28.0413L25.3422 28.0377L25.3404 31.6768ZM19.2904 25.5413C19.1776 29.0184 21.9306 31.8041 25.4095 31.6749L25.2749 28.0377C23.9339 28.0868 22.8822 27.0588 22.9277 25.6577L19.2904 25.5413ZM19.1722 17.5389L19.2904 25.6268L22.9295 25.574L22.8112 17.4862L19.1722 17.5389ZM20.9335 15.6939C20.9116 15.6939 20.8898 15.6939 20.8698 15.6957L20.9862 19.333C21.0081 19.333 21.0299 19.333 21.0517 19.3312L20.9335 15.6939ZM20.8734 15.6957L3.05467 16.2416L3.16566 19.8789L20.9844 19.333L20.8734 15.6957ZM1.29881 18.2376C1.45166 19.7952 1.44438 21.1634 1.39343 22.3316L5.02887 22.4881C5.08346 21.2108 5.09619 19.6605 4.9197 17.8792L1.29881 18.2376ZM1.40071 22.237C1.30609 23.2104 1.2606 23.669 1.08229 24.8735L4.68316 25.4084C4.87421 24.1184 4.92516 23.5889 5.02341 22.5863L1.40071 22.237ZM2.88363 25.141C1.67788 25.0087 1.07501 24.9426 1.07501 24.9426C1.07501 24.9426 1.07501 24.9481 1.07501 24.9499C1.07501 24.9554 1.07501 24.9627 1.07319 24.9717C1.07137 24.9899 1.06773 25.0172 1.06409 25.0536C1.05681 25.1246 1.0459 25.2283 1.03316 25.3593C1.00587 25.6213 0.969477 25.9943 0.927627 26.4419C0.845748 27.3335 0.747493 28.5289 0.681989 29.7244L4.31561 29.9227C4.37748 28.7891 4.47209 27.6428 4.55033 26.7749C4.59036 26.3419 4.62493 25.9816 4.65223 25.7305C4.66496 25.6049 4.67588 25.5067 4.68316 25.4394C4.6868 25.4066 4.68862 25.3811 4.69044 25.3648C4.69044 25.3557 4.69044 25.3502 4.69226 25.3466C4.69226 25.3448 4.69226 25.3429 4.69226 25.3429L2.88363 25.1446V25.141ZM0.681989 29.7171C0.574637 31.5621 0.605569 34.1313 1.20784 37.4611L4.78869 36.8151C4.24465 33.7965 4.22281 31.5185 4.31561 29.93L0.681989 29.7171ZM3.32214 38.9276C8.81352 37.936 17.1361 36.7933 27.2273 36.4148L27.0908 32.7776C16.8049 33.1633 8.31132 34.3278 2.67621 35.3449L3.32214 38.9276ZM27.2182 36.4148C37.3366 36.0782 44.0853 36.7424 50.3172 37.3574L50.6739 33.7365C44.4019 33.1178 37.4622 32.4337 27.0981 32.7794L27.2182 36.4148ZM50.3172 37.3574C52.1131 37.5339 53.8799 37.7085 55.6667 37.8523L55.956 34.2259C54.2074 34.0858 52.4752 33.9148 50.6739 33.7365L50.3172 37.3574ZM55.6667 37.8523C66.5912 38.6984 82.8743 39.0714 103.131 35.9035L102.569 32.3081C82.6559 35.4214 66.6658 35.0538 55.9505 34.2241L55.6667 37.8523ZM104.64 33.7838C104.592 33.5254 104.563 33.2161 104.527 32.803L100.902 33.1324C100.937 33.5072 100.979 33.9839 101.059 34.4297L104.64 33.7838ZM104.527 32.803C104.492 32.4282 104.45 31.9533 104.37 31.5057L100.789 32.1517C100.837 32.41 100.866 32.7194 100.902 33.1324L104.527 32.803ZM104.378 31.5476C104.07 29.5879 103.604 27.8994 103.193 26.4055L99.6832 27.3699C100.098 28.8747 100.511 30.3812 100.782 32.1098L104.378 31.5476ZM103.193 26.4055C102.312 23.2032 101.703 20.8996 102.638 17.6881L99.1464 16.671C97.8964 20.9633 98.8043 24.1675 99.685 27.3717L103.193 26.4055ZM100.831 15.3609C96.4317 15.5029 92.123 15.5866 87.8725 15.6302L87.9089 19.2693C92.1812 19.2256 96.519 19.1419 100.951 18.9982L100.831 15.3609ZM89.8595 24.637L89.7103 17.4116L86.0694 17.4862L86.2204 24.7116L89.8595 24.637ZM83.5402 31.1527C86.95 31.0272 89.7467 28.1159 89.8577 24.7352L86.2204 24.6169C86.1695 26.1454 84.8466 27.4645 83.4056 27.5173L83.5402 31.1527ZM80.2123 31.2273L83.5129 31.1527L83.4329 27.5155L80.1322 27.5864L80.2123 31.2273ZM73.6929 24.9299C73.853 28.418 76.7151 31.3565 80.2378 31.2273L80.1031 27.5901C78.7748 27.6392 77.4047 26.462 77.3265 24.7625L73.6929 24.9299ZM73.5928 17.5007L73.691 24.8699L77.3301 24.8207L77.2319 17.4516L73.5928 17.5007ZM75.4196 15.6575C70.5614 15.6357 65.7469 15.5829 60.927 15.5302L60.8869 19.1692C65.7051 19.222 70.5305 19.2748 75.4032 19.2966L75.4196 15.6575ZM60.927 15.5302C51.8184 15.4301 42.6897 15.33 33.2427 15.4355L33.2827 19.0746C42.6843 18.9709 51.7747 19.071 60.8869 19.1692L60.927 15.5302ZM35.2005 25.4375L35.0804 17.2278L31.4413 17.2806L31.5614 25.4903L35.2005 25.4375ZM29.1978 31.6822C32.4566 31.5967 35.0895 28.8692 35.1987 25.5231L31.5614 25.4048C31.5105 26.935 30.3278 28.0122 29.1032 28.045L29.1978 31.6822Z" fill="#013A31"/>
<path d="M3.63327 40.8545L3.32213 37.2282C15.6186 36.1747 27.6967 35.5506 39.2217 35.3722C44.9405 35.2503 49.0454 35.2558 53.0083 35.2522C57.5481 35.2522 61.824 35.2558 67.7084 35.0429C70.8107 34.9265 73.9367 34.7809 77.1209 34.6335C85.2851 34.255 93.726 33.8638 103.22 33.8638V37.5029C93.8115 37.5029 85.4125 37.8923 77.2901 38.2671C74.0968 38.4163 70.9599 38.5601 67.8448 38.6783C61.8895 38.8912 57.5735 38.884 53.0083 38.8894C49.0672 38.8894 44.9805 38.8876 39.2908 39.0095C27.8386 39.186 15.846 39.8083 3.63327 40.8545Z" fill="#013A31"/>
<path d="M34.3471 107.874L30.7099 107.784C30.7099 107.784 30.8099 103.627 31.152 93.734C31.2757 90.1441 31.4722 87.8205 31.6451 85.7717C31.9471 82.1854 32.1473 79.8182 31.7033 73.4134C30.9973 63.244 31.2193 51.1113 31.2211 50.9894L34.8602 51.0585C34.8584 51.1786 34.6382 63.1548 35.3333 73.1605C35.7973 79.8436 35.5771 82.4583 35.2714 86.0792C35.1022 88.0862 34.9094 90.3606 34.7893 93.8614C34.4472 103.718 34.3471 107.865 34.3471 107.874Z" fill="#013A31"/>
<path d="M50.4701 107.568C50.4501 107.391 49.9879 103.143 50.33 93.2427C50.461 89.4581 50.6757 87.0854 50.865 84.9929C51.1688 81.6468 51.3872 79.2304 51.0396 72.9967C50.4683 62.7854 51.1051 50.5581 51.1124 50.4362L54.746 50.6291C54.7406 50.7492 54.1147 62.7818 54.6733 72.7929C55.0353 79.2905 54.7952 81.9507 54.4895 85.3186C54.3039 87.3656 54.0946 89.6837 53.9673 93.3665C53.6361 102.943 54.0801 107.12 54.0855 107.16L50.4701 107.568Z" fill="#013A31"/>
<path d="M71.0418 106.955C71.0218 106.778 70.5596 102.532 70.9017 92.6296C71.0327 88.8449 71.2474 86.4722 71.4366 84.3798C71.7405 81.0336 71.9588 78.6173 71.6113 72.3835C71.04 62.1723 71.6768 49.945 71.6841 49.8231L75.3177 50.0159C75.3122 50.136 74.6863 62.1686 75.2449 72.1797C75.607 78.6773 75.3668 81.3375 75.0611 84.7055C74.8756 86.7524 74.6663 89.0705 74.5389 92.7533C74.2078 102.33 74.6517 106.505 74.6572 106.547L71.0418 106.955Z" fill="#013A31"/>
<path d="M15.071 71.3573L14.6306 67.7455C14.8162 67.7237 19.2977 67.1906 30.1841 67.1596C34.4181 67.1305 37.0164 67.2834 39.3309 67.4016C42.9918 67.5909 45.6374 67.7255 52.4079 67.1323C63.6745 66.2571 92.2886 65.9751 92.5761 65.9715L92.6125 69.6106C92.325 69.6124 63.8346 69.8944 52.71 70.7587C45.6993 71.3719 42.8062 71.2227 39.1453 71.0371C36.8781 70.9206 34.2926 70.7769 30.1968 70.7987C19.5761 70.8278 15.1146 71.3519 15.0728 71.3573H15.071Z" fill="#013A31"/>
<path d="M14.9599 90.3679L14.5196 86.7561C14.7052 86.7342 19.1867 86.2011 30.073 86.1702C34.2852 86.1429 36.8835 86.2794 39.1762 86.3849C42.8116 86.5523 45.4354 86.676 52.3151 86.1411C63.5635 85.2659 92.1776 84.9857 92.465 84.982L92.4996 88.6211C92.2139 88.6229 63.7236 88.9031 52.5971 89.7692C45.49 90.3206 42.6278 90.1877 39.0069 90.0203C36.7562 89.9148 34.2197 89.7911 30.0839 89.8093C19.4651 89.8384 15.0017 90.3624 14.9599 90.3679Z" fill="#013A31"/>
</svg>
