<svg width="128" height="127" viewBox="0 0 128 127" fill="none" xmlns="http://www.w3.org/2000/svg">
<path d="M0.000453692 113.98C-0.0333433 118.244 1.82549 121.585 4.10397 123.196C7.33439 125.598 12.0322 125.305 14.5867 122.632C18.6169 118.354 15.4823 111.133 18.6057 108.102C19.1685 107.61 19.8029 107.207 20.487 106.905C31.1891 117.586 45.4038 124.018 60.4908 125.009C75.5778 125.999 90.5115 121.48 102.518 112.29L107.869 121.686C108.512 122.801 109.377 123.772 110.41 124.539C111.443 125.306 112.623 125.853 113.876 126.146C115.129 126.439 116.429 126.471 117.695 126.241C118.962 126.012 120.167 125.524 121.238 124.81C122.308 124.095 123.22 123.169 123.918 122.087C124.616 121.006 125.084 119.793 125.294 118.523C125.504 117.253 125.451 115.954 125.139 114.706C124.826 113.457 124.261 112.286 123.478 111.265L114.73 99.9827C122.822 89.1924 127.188 76.0651 127.173 62.5779C127.173 28.0684 99.1044 0 64.6062 0C18.3776 0 -11.7186 48.5775 8.27789 89.7929C5.66708 94.9047 3.68714 100.067 2.08178 104.613C0.997464 107.725 0.000453692 110.786 0.000453692 113.98ZM64.6174 20.3486C96.7245 20.3486 116.927 54.875 101.676 82.7434C99.1889 77.9921 100.318 74.5758 100.98 69.4612C101.679 64.1494 100.98 59.9783 98.7439 55.9424C95.6064 50.3096 88.9174 39.4636 84.5013 34.6531C83.0255 33.1717 79.612 32.6169 77.7419 34.3152C76.7871 35.1291 75.9112 36.6697 77.1786 39.3847C78.4967 42.1223 84.3436 51.6812 86.1602 54.1934C87.4754 55.9509 89.4469 58.4518 89.6553 60.5501C89.6692 61.0466 89.5205 61.5342 89.2317 61.9384C88.9429 62.3426 88.5299 62.6413 88.0556 62.7891C87.6247 62.9159 86.2954 63.3073 84.4112 60.874C81.8116 57.5112 75.1564 46.1441 72.3964 42.5335C71.8584 41.8716 71.0051 40.9366 69.7771 40.4578C67.0987 39.4946 64.3837 41.5618 64.333 44.0656C64.2738 45.4738 64.9723 46.6173 65.4286 47.3749C67.8169 51.3601 74.0411 63.1186 76.4999 67.2193C77.0885 68.2023 77.7419 69.2303 77.4011 70.2554C76.8378 71.7256 74.6354 72.4128 72.295 69.9006C69.1969 66.6589 63.3923 55.4664 61.8742 51.3883C60.8153 48.2085 58.8325 47.696 56.4498 49.2084C53.1574 51.346 54.4783 54.8975 54.9825 56.2494C56.6216 60.505 62.1502 72.8888 65.4511 76.8627C69.1575 81.3521 74.1538 84.1516 80.1359 84.5515C84.3971 84.8332 88.2838 87.3313 90.5256 91.2518L92.3084 94.3808C87.9982 98.1477 82.9657 100.997 77.518 102.755C72.0703 104.513 66.3216 105.143 60.6226 104.606C54.9235 104.069 49.3935 102.377 44.3699 99.6326C39.3463 96.8883 34.9345 93.1493 31.4035 88.6438C31.4598 88.6269 31.5133 88.5875 31.5668 88.5762C32.0203 88.4861 32.5131 88.4297 32.975 88.3396C36.1463 87.72 37.1574 84.4276 35.8534 81.4957L55.4359 47.1355C57.2922 43.871 57.7778 40.0036 56.7863 36.3815C55.7947 32.7595 53.4069 29.6787 50.1467 27.8149L49.4989 27.4459C48.8602 27.0846 48.1044 26.9908 47.3967 27.185C46.689 27.3792 46.0869 27.8456 45.7221 28.4824L22.8416 68.636C19.1154 42.9362 39.1486 20.3486 64.6174 20.3486ZM99.6001 101.109L93.1421 89.7647C90.2947 84.774 85.3378 81.8168 80.2006 81.5239C73.8327 81.1803 69.6813 77.2542 67.7718 74.9419C64.8737 71.4524 59.4634 59.4967 57.7989 55.182C57.0582 53.188 57.1286 52.3487 58.0805 51.7347C58.2634 51.6125 58.46 51.5123 58.6663 51.4362C58.8239 51.7374 58.9512 52.0534 59.0466 52.3797C60.6885 56.8099 66.7213 68.4332 70.1123 71.9594C74.934 77.1387 80.7104 73.7027 80.5076 69.5091C80.4541 67.9629 79.7218 66.7434 79.0769 65.6675C76.666 61.6428 70.4558 49.9097 68.0028 45.8174C67.6394 45.2175 67.3156 44.643 67.3353 44.1557C67.3601 44.0021 67.4171 43.8554 67.5024 43.7253C67.5878 43.5951 67.6996 43.4845 67.8306 43.4005C67.9617 43.3165 68.1089 43.2611 68.2628 43.2379C68.4167 43.2146 68.5738 43.2241 68.7238 43.2657C69.3096 43.4939 69.8785 44.1952 70.039 44.3923C72.7456 47.9354 79.1895 59.0377 82.0341 62.699C86.7601 68.805 93.0181 64.9859 92.6492 60.2769C92.3675 57.3703 90.3144 54.7145 88.5823 52.3909C86.8755 50.028 81.1272 40.6296 79.8965 38.0779C79.3332 36.8809 79.5979 36.6697 79.7444 36.5401C79.9213 36.4132 80.1218 36.3228 80.3341 36.2745C80.5465 36.2261 80.7663 36.2207 80.9808 36.2585C81.2821 36.3627 82.0285 36.3965 82.3327 36.7007C86.6756 41.4351 93.3167 52.3402 96.1331 57.376C102.211 68.3262 92.4408 75.9136 100.521 86.478L107.159 95.0624C103.958 96.0355 101.252 98.1999 99.6001 101.109ZM33.9242 78.8201C31.2176 76.1755 27.4098 73.5957 23.5034 73.5337L48.2175 30.1807L48.6596 30.4313C51.2242 31.9001 53.1025 34.3249 53.8837 37.1751C54.6649 40.0253 54.2853 43.0689 52.8279 45.64L33.9242 78.8201ZM23.2725 105.39C29.1278 101.619 26.5367 94.5949 29.1109 90.5759C32.8671 95.3463 37.5472 99.3098 42.8711 102.229C48.1949 105.149 54.0531 106.964 60.0949 107.566C66.1367 108.169 72.2379 107.546 78.0334 105.735C83.8289 103.924 89.1994 100.963 93.8236 97.0283L101.02 109.654C89.7191 118.425 75.633 122.823 61.3498 122.039C47.0666 121.256 33.546 115.344 23.2725 105.39ZM64.6062 3.00511C97.4484 3.00511 124.168 29.7244 124.168 62.5666C124.178 75.1174 120.201 87.3469 112.809 97.4901L103.543 85.5119C121.286 55.5904 99.6001 17.3547 64.6174 17.3547C35.6225 17.3435 13.9896 44.4233 20.5377 72.6635L19.4675 74.5448H19.4506C17.2791 75.8291 16.5722 77.3612 13.9164 80.8536C12.0519 83.3039 11.3309 84.2812 10.0748 86.4611C-7.25463 47.1073 21.853 3.00511 64.6062 3.00511Z" fill="#013A31"/>
</svg>
