<svg width="82" height="133" viewBox="0 0 82 133" fill="none" xmlns="http://www.w3.org/2000/svg">
<path d="M54.3298 20.0393C53.8992 20.0393 53.4702 19.864 53.1605 19.5199C52.5806 18.8769 52.634 17.8881 53.2784 17.3108C53.3963 17.2044 56.2079 14.6919 58.1725 13.2854L58.4852 13.0664C59.7677 12.1731 61.9161 10.6759 62.4269 10.1268C63.0163 9.49162 64.0111 9.45407 64.6476 10.0407C65.2841 10.6274 65.3234 11.6177 64.734 12.2513C64.0488 12.9882 62.3876 14.1662 60.2879 15.6306L59.9924 15.8355C58.1819 17.134 55.408 19.6122 55.3797 19.6372C55.0795 19.9063 54.7039 20.0377 54.3298 20.0377V20.0393Z" fill="#013A31"/>
<path d="M48.4441 16.7836C48.3718 16.7836 48.2995 16.7789 48.2256 16.768C47.3659 16.6491 46.7656 15.859 46.8834 15.0048C46.8866 14.9845 47.1695 12.9303 47.4744 9.18186C47.7965 5.21593 47.9537 3.69996 48.378 1.29382C48.5289 0.44431 49.3367 -0.125156 50.198 0.0234683C51.053 0.173657 51.6235 0.984051 51.4742 1.83512C51.0687 4.13332 50.9241 5.51944 50.6066 9.43217C50.2939 13.2808 50.0094 15.3459 49.9968 15.4319C49.8868 16.2141 49.2142 16.7805 48.4425 16.7805L48.4441 16.7836Z" fill="#013A31"/>
<path d="M42.9418 20.1472L41.8778 19.0959C41.6656 18.8816 41.5289 18.6218 41.466 18.3481C41.2978 18.0696 40.9364 17.5001 40.171 16.369C37.8434 12.9319 36.1507 10.9325 34.7897 9.32735L34.5854 9.08642C34.0275 8.42622 34.1123 7.43904 34.7756 6.88209C35.4388 6.32514 36.4273 6.40962 36.99 7.07139L37.1911 7.31075C38.5993 8.97378 40.3533 11.0451 42.7767 14.6215C44.6753 17.4266 45.2473 18.273 44.0513 19.2461L42.9418 20.1472Z" fill="#013A31"/>
<path d="M31.3745 132.931C22.7148 131.872 9.94375 115.908 6.97021 108.688L9.64042 109.452L19.8325 120.57L34.1516 110.214C37.8575 122.656 40.0327 133.99 31.3745 132.931Z" fill="#013A31"/>
<path d="M20.2992 122C20.2662 122 20.2364 122 20.2049 122C16.1344 121.875 9.51626 113.594 7.44327 110.163L7.18553 109.736C5.09211 106.277 1.19603 99.8396 0.182325 95.143L0.00158691 94.3045L0.612953 93.7022C1.86869 92.4647 8.74773 86.0644 10.904 84.1448C13.1719 82.1267 16.8385 77.5084 17.5049 74.0087C17.7658 72.6335 17.8491 71.3053 17.9449 69.769C18.1225 66.9247 18.3441 63.3844 19.8277 57.7742C20.3841 55.6715 21.0866 53.5673 21.764 51.5304C23.8716 45.2068 25.8628 39.2337 23.969 33.0024L20.7157 25.6088C20.6136 25.3428 18.9791 20.895 21.5801 17.8599C22.9364 16.3362 26.6204 14.232 30.9832 17.012L31.1734 17.1544C34.9626 20.471 36.135 22.8678 38.4296 27.9758C39.9415 31.3441 40.8515 34.509 41.312 36.8182C45.4532 33.6783 54.4351 26.9166 58.5921 24.171C68.6364 17.533 75.1226 15.4131 79.0108 17.497C80.9958 18.5624 81.6763 20.0377 81.8963 21.0859C82.2751 22.896 81.6338 24.9736 80.0873 26.9385C78.7027 28.6986 77.172 29.8391 75.2341 31.2831C73.98 32.2186 72.5576 33.2778 70.8006 34.7687C69.7554 35.6151 66.3387 38.4655 62.8418 41.3911C64.4889 41.7509 66.2145 42.6505 67.2628 44.0147C68.1508 45.1693 69.2871 47.6239 66.9233 51.0751C66.7866 51.2754 66.6467 51.4772 66.5037 51.6759C66.6813 51.6602 66.8526 51.6571 67.0145 51.6665C69.3751 51.6712 71.2328 52.5129 72.4209 54.0758C73.6609 55.706 73.9423 57.9572 73.2146 60.4166C73.18 60.537 73.1313 60.6684 73.0716 60.8077C73.3765 60.7435 73.6641 60.7107 73.9234 60.7201C75.6993 60.7701 77.1327 61.8246 77.854 63.6159C79.0894 66.676 78.1747 71.5227 75.9335 73.7849L74.6463 75.0881C72.7588 77.0015 72.0516 77.718 69.6658 79.8738C68.4164 81.0034 66.3638 82.7478 63.7659 84.9568C60.5284 87.7103 56.4987 91.1364 52.7079 94.5016C49.4719 97.1706 32.5344 113.646 32.3647 113.812C30.4583 115.73 23.9376 122 20.3055 122H20.2992ZM3.46233 95.3104C4.64262 99.4703 8.13951 105.248 9.87774 108.12L10.1371 108.549C12.8434 113.028 18.5437 118.817 20.3024 118.871H20.3275C21.5723 118.871 25.6554 116.105 30.144 111.592C30.8638 110.893 47.3643 94.8411 50.6554 92.1283C54.4273 88.7788 58.4711 85.3401 61.7212 82.5788C64.1965 80.473 66.3355 78.6551 67.5504 77.5584C69.8701 75.4636 70.5585 74.7643 72.4005 72.8979L73.6924 71.59C75.0424 70.2258 75.6931 66.6651 74.9355 64.7846C74.5662 63.8709 74.0711 63.8568 73.8322 63.849H73.8134C73.0056 63.849 70.5302 65.2586 67.8459 67.1751C65.9473 68.9992 64.1133 70.4385 63.4139 70.4855L62.3106 70.5606L61.8564 69.5484C61.3849 68.4751 62.078 67.8212 63.1294 66.8324C63.6779 66.3881 64.5832 65.67 65.6645 64.8816C67.6573 62.9979 69.878 60.6497 70.1908 59.5514C70.6403 58.0308 70.5412 56.7964 69.9094 55.9657C69.3358 55.2116 68.3189 54.797 67.0396 54.797C67.0176 54.797 66.9956 54.797 66.9721 54.797H66.884L66.796 54.7892C65.8515 54.6922 62.9235 56.4757 59.7567 58.9366C58.1018 60.4056 56.8743 61.3349 56.7596 61.4194L54.7683 59.0023C55.3907 58.4516 56.4688 57.5239 57.7607 56.5085C59.7803 54.7078 62.4379 52.0889 64.3144 49.3198C65.7572 47.214 65.0059 46.2362 64.7592 45.9155C63.7659 44.6233 61.4729 44.1696 60.8458 44.3855C59.4439 44.8689 55.771 47.4565 53.7845 48.9741L51.8152 46.5366C52.4109 46.0376 66.4314 34.2681 68.7826 32.3657C70.5868 30.8341 72.116 29.6951 73.3435 28.7799C75.2326 27.3735 76.4789 26.4426 77.6073 25.0096C78.5581 23.8018 78.9982 22.605 78.8143 21.7257C78.6902 21.1359 78.2658 20.6541 77.5146 20.252C76.0042 19.4416 71.7687 19.2163 60.3256 26.7774C55.0324 30.274 41.2083 40.831 41.07 40.9374L38.6166 42.8116L38.5412 39.7343C38.5082 38.4123 37.7365 34.1101 35.5551 29.2524C33.3281 24.2915 32.3788 22.4016 29.1868 19.5856C26.0278 17.6425 24.0303 19.8171 23.947 19.911C22.5954 21.4879 23.6138 24.4057 23.6248 24.4338L26.9441 31.9949C29.1774 39.2118 26.9237 45.9734 24.7438 52.5129C24.0806 54.5013 23.3954 56.5602 22.8641 58.5674C21.4591 63.8803 21.2579 67.1094 21.0803 69.9582C20.9813 71.5321 20.8886 73.0183 20.59 74.5859C19.735 79.0838 15.479 84.2637 12.9959 86.4728C10.9826 88.2641 5.51645 93.3517 3.46075 95.3057L3.46233 95.3104Z" fill="#013A31"/>
</svg>
