<svg width="44" height="34" viewBox="0 0 44 34" fill="none" xmlns="http://www.w3.org/2000/svg">
<path d="M0 0C2.28635 -3.30424e-08 4.5503 0.451 6.66257 1.32725C8.77484 2.20349 10.6941 3.48782 12.3106 5.10688C13.9272 6.72594 15.2094 8.64803 16.0841 10.7634C16.9587 12.8787 17.4087 15.1459 17.4083 17.4354V34C12.7914 34 8.36349 32.1634 5.09879 28.8942C1.83409 25.625 0 21.191 0 16.5676V0Z" fill="#013A31" fill-opacity="0.7"/>
<path d="M18.9315 19.9054V11.1122C18.9315 8.16663 20.1 5.34171 22.18 3.25888C24.2599 1.17605 27.0809 0.00592356 30.0225 0.00592356V8.79913C30.0225 11.7447 28.8539 14.5696 26.774 16.6525C24.694 18.7353 21.873 19.9054 18.9315 19.9054Z" fill="#013A31" fill-opacity="0.7"/>
<path d="M18.9315 21.6291H31.6491C34.9248 21.6291 38.0663 22.9321 40.3825 25.2516C42.6988 27.571 44 30.7169 44 33.997H31.2706C27.9969 33.9939 24.8585 32.6895 22.5448 30.3704C20.2311 28.0513 18.9315 24.9072 18.9315 21.6291Z" fill="#013A31" fill-opacity="0.7"/>
</svg>
