<svg width="196" height="128" viewBox="0 0 196 128" fill="none" xmlns="http://www.w3.org/2000/svg">
<path d="M193.488 123.993C193.488 125 193.67 125.731 194.035 126.187C194.411 126.632 195.066 126.855 196 126.855V127.539C195.302 127.475 194.62 127.443 193.955 127.443C192.537 127.443 191.394 127.597 190.524 127.905V125.01C190.116 125.986 189.515 126.728 188.721 127.237C187.937 127.746 186.976 128 185.838 128C184.442 128 183.24 127.671 182.23 127.014C181.221 126.357 180.443 125.371 179.895 124.056C179.358 122.742 179.095 121.114 179.106 119.174C179.095 117.277 179.428 115.66 180.104 114.324C180.781 112.988 181.683 111.987 182.81 111.319C183.948 110.651 185.199 110.317 186.563 110.317C187.4 110.317 188.168 110.476 188.866 110.794C189.574 111.101 190.127 111.584 190.524 112.241V105.912C190.524 104.905 190.336 104.179 189.961 103.733C189.596 103.277 188.946 103.05 188.012 103.05V102.366C188.71 102.429 189.392 102.461 190.057 102.461C191.475 102.461 192.618 102.307 193.488 102V123.993ZM190.524 113.577C189.912 111.902 188.683 111.064 186.836 111.064C185.945 111.064 185.156 111.366 184.469 111.971C183.792 112.564 183.261 113.471 182.874 114.69C182.488 115.898 182.3 117.393 182.311 119.174C182.3 121.782 182.671 123.744 183.422 125.058C184.184 126.362 185.306 127.014 186.788 127.014C187.357 127.014 187.894 126.871 188.398 126.585C188.903 126.298 189.343 125.874 189.719 125.313C190.095 124.74 190.363 124.056 190.524 123.261V113.577Z" fill="white"/>
<path d="M174.775 123.627C174.517 124.39 174.104 125.106 173.535 125.774C172.977 126.431 172.273 126.966 171.425 127.38C170.588 127.793 169.648 128 168.607 128C167.039 128 165.681 127.65 164.532 126.95C163.394 126.24 162.525 125.249 161.923 123.977C161.322 122.694 161.021 121.22 161.021 119.556C161.021 117.669 161.327 116.031 161.939 114.642C162.551 113.253 163.416 112.188 164.532 111.446C165.66 110.693 166.975 110.317 168.478 110.317C170.454 110.317 171.973 110.91 173.036 112.098C174.109 113.275 174.646 115.066 174.646 117.473H164.339C164.264 118.035 164.226 118.729 164.226 119.556C164.226 120.987 164.463 122.238 164.935 123.309C165.418 124.38 166.046 125.201 166.819 125.774C167.592 126.346 168.408 126.632 169.267 126.632C171.479 126.632 173.095 125.546 174.115 123.372L174.775 123.627ZM171.474 116.853C171.516 115.771 171.425 114.78 171.2 113.879C170.974 112.978 170.62 112.262 170.137 111.732C169.654 111.202 169.058 110.937 168.349 110.937C167.673 110.937 167.05 111.154 166.481 111.589C165.912 112.013 165.429 112.67 165.032 113.561C164.645 114.441 164.398 115.538 164.291 116.853H171.474Z" fill="white"/>
<path d="M144.902 114.245C145.449 112.866 146.212 111.87 147.189 111.255C148.176 110.63 149.288 110.317 150.522 110.317C152.058 110.317 153.223 110.725 154.017 111.541C154.425 111.987 154.715 112.538 154.887 113.195C155.069 113.842 155.161 114.716 155.161 115.819V124.517C155.161 125.122 155.241 125.593 155.402 125.933C155.574 126.272 155.837 126.51 156.191 126.648C156.556 126.786 157.05 126.855 157.673 126.855V127.539C155.654 127.454 154.334 127.412 153.711 127.412C153.099 127.412 151.87 127.454 150.023 127.539V126.855C150.571 126.855 150.995 126.786 151.295 126.648C151.607 126.51 151.832 126.272 151.972 125.933C152.122 125.593 152.197 125.122 152.197 124.517V115.103C152.197 114.319 152.133 113.662 152.004 113.131C151.886 112.601 151.628 112.172 151.231 111.843C150.844 111.515 150.275 111.35 149.524 111.35C148.622 111.35 147.817 111.61 147.108 112.13C146.41 112.649 145.868 113.365 145.481 114.276C145.095 115.178 144.902 116.179 144.902 117.282V124.517C144.902 125.122 144.971 125.593 145.111 125.933C145.261 126.272 145.492 126.51 145.804 126.648C146.115 126.786 146.544 126.855 147.092 126.855V127.539C145.245 127.454 144.011 127.412 143.388 127.412C142.765 127.412 141.444 127.454 139.426 127.539V126.855C140.049 126.855 140.537 126.786 140.892 126.648C141.257 126.51 141.52 126.272 141.681 125.933C141.852 125.593 141.938 125.122 141.938 124.517V114.324C141.938 113.317 141.75 112.586 141.375 112.13C141.01 111.674 140.36 111.446 139.426 111.446V110.762C140.113 110.826 140.795 110.857 141.471 110.857C142.867 110.857 144.011 110.709 144.902 110.412V114.245Z" fill="white"/>
<path d="M123.87 114.245C124.418 112.866 125.18 111.87 126.157 111.255C127.145 110.63 128.256 110.317 129.491 110.317C131.026 110.317 132.191 110.725 132.985 111.541C133.393 111.987 133.683 112.538 133.855 113.195C134.038 113.842 134.129 114.716 134.129 115.819V124.517C134.129 125.122 134.209 125.593 134.37 125.933C134.542 126.272 134.805 126.51 135.16 126.648C135.525 126.786 136.018 126.855 136.641 126.855V127.539C134.623 127.454 133.302 127.412 132.679 127.412C132.067 127.412 130.838 127.454 128.991 127.539V126.855C129.539 126.855 129.963 126.786 130.264 126.648C130.575 126.51 130.8 126.272 130.94 125.933C131.09 125.593 131.166 125.122 131.166 124.517V115.103C131.166 114.319 131.101 113.662 130.972 113.131C130.854 112.601 130.596 112.172 130.199 111.843C129.813 111.515 129.244 111.35 128.492 111.35C127.59 111.35 126.785 111.61 126.076 112.13C125.378 112.649 124.836 113.365 124.45 114.276C124.063 115.178 123.87 116.179 123.87 117.282V124.517C123.87 125.122 123.94 125.593 124.079 125.933C124.23 126.272 124.461 126.51 124.772 126.648C125.083 126.786 125.513 126.855 126.06 126.855V127.539C124.214 127.454 122.979 127.412 122.356 127.412C121.733 127.412 120.413 127.454 118.394 127.539V126.855C119.017 126.855 119.506 126.786 119.86 126.648C120.225 126.51 120.488 126.272 120.649 125.933C120.821 125.593 120.907 125.122 120.907 124.517V114.324C120.907 113.317 120.719 112.586 120.343 112.13C119.978 111.674 119.328 111.446 118.394 111.446V110.762C119.081 110.826 119.763 110.857 120.44 110.857C121.835 110.857 122.979 110.709 123.87 110.412V114.245Z" fill="white"/>
<path d="M110.247 114.245C110.247 112.983 109.978 112.124 109.441 111.669C108.915 111.202 108.164 110.969 107.187 110.969C105.63 110.969 104.54 111.356 103.917 112.13C104.357 112.236 104.723 112.469 105.012 112.829C105.313 113.179 105.463 113.609 105.463 114.117C105.463 114.669 105.286 115.103 104.932 115.421C104.588 115.729 104.121 115.883 103.531 115.883C102.972 115.883 102.532 115.697 102.21 115.326C101.899 114.955 101.743 114.467 101.743 113.863C101.743 113.015 102.258 112.241 103.289 111.541C103.826 111.191 104.486 110.9 105.27 110.667C106.065 110.433 106.945 110.317 107.911 110.317C108.813 110.317 109.608 110.428 110.295 110.651C110.982 110.863 111.519 111.16 111.905 111.541C112.41 112.05 112.754 112.644 112.936 113.322C113.129 113.99 113.226 114.918 113.226 116.105V125.154C113.226 125.694 113.301 126.086 113.451 126.33C113.612 126.574 113.875 126.696 114.241 126.696C114.509 126.696 114.756 126.638 114.981 126.521C115.207 126.404 115.454 126.235 115.722 126.012L116.093 126.569C115.706 126.855 115.384 127.078 115.126 127.237C114.869 127.396 114.573 127.523 114.241 127.618C113.908 127.714 113.521 127.761 113.081 127.761C112.018 127.761 111.277 127.502 110.859 126.982C110.451 126.452 110.247 125.747 110.247 124.867C109.602 125.917 108.829 126.664 107.927 127.109C107.026 127.544 106.108 127.761 105.173 127.761C104.411 127.761 103.713 127.634 103.08 127.38C102.446 127.115 101.936 126.712 101.55 126.171C101.174 125.62 100.986 124.936 100.986 124.12C100.986 123.293 101.19 122.588 101.598 122.005C102.006 121.422 102.581 120.913 103.321 120.478C104.062 120.033 105.055 119.551 106.301 119.031C106.516 118.946 107.042 118.734 107.879 118.395C108.717 118.056 109.318 117.717 109.683 117.377C110.059 117.038 110.247 116.667 110.247 116.264V114.245ZM110.247 117.6C110.085 117.844 109.817 118.072 109.441 118.284C109.065 118.496 108.282 118.888 107.09 119.461C106.456 119.757 105.92 120.065 105.479 120.383C105.039 120.69 104.663 121.109 104.352 121.639C104.041 122.169 103.885 122.821 103.885 123.595C103.885 124.539 104.127 125.254 104.61 125.742C105.093 126.219 105.732 126.457 106.526 126.457C107.986 126.457 109.227 125.636 110.247 123.993V117.6Z" fill="white"/>
<path d="M95.1414 124.517C95.1414 125.122 95.2219 125.593 95.383 125.933C95.5548 126.272 95.8178 126.51 96.1721 126.648C96.5372 126.786 97.031 126.855 97.6538 126.855V127.539C95.6353 127.454 94.3039 127.412 93.6597 127.412C93.0155 127.412 91.6842 127.454 89.6657 127.539V126.855C90.2885 126.855 90.777 126.786 91.1313 126.648C91.4963 126.51 91.7594 126.272 91.9204 125.933C92.0922 125.593 92.1781 125.122 92.1781 124.517V105.912C92.1781 104.905 91.9902 104.179 91.6144 103.733C91.2494 103.277 90.5998 103.05 89.6657 103.05V102.366C90.3529 102.429 91.0346 102.461 91.7111 102.461C93.1283 102.461 94.2717 102.307 95.1414 102V124.517Z" fill="white"/>
<path d="M75.7363 124.088C75.7363 124.904 75.8222 125.498 75.9939 125.869C76.1657 126.24 76.4771 126.495 76.928 126.632C77.379 126.77 78.0929 126.855 79.07 126.887V127.539C77.9319 127.475 76.316 127.443 74.2224 127.443C72.3328 127.443 70.9263 127.475 70.0029 127.539V126.887C70.7974 126.855 71.3718 126.77 71.7261 126.632C72.0912 126.495 72.3381 126.24 72.467 125.869C72.6065 125.498 72.6763 124.904 72.6763 124.088V107.931C72.6763 107.115 72.6065 106.522 72.467 106.15C72.3381 105.779 72.0912 105.525 71.7261 105.387C71.3718 105.249 70.7974 105.165 70.0029 105.133V104.481C70.9155 104.544 72.2576 104.576 74.0291 104.576C74.8881 104.576 75.8329 104.566 76.8636 104.544C77.9051 104.523 78.619 104.513 79.0056 104.513C80.7342 104.513 82.1943 104.783 83.3861 105.324C84.5779 105.854 85.469 106.601 86.0595 107.566C86.6608 108.53 86.9614 109.654 86.9614 110.937C86.9614 112.124 86.693 113.269 86.1561 114.372C85.6193 115.474 84.7013 116.391 83.4022 117.123C82.1138 117.854 80.4067 118.22 78.2808 118.22H75.7363V124.088ZM77.9587 117.568C80.1061 117.568 81.5931 117.001 82.4198 115.867C83.2465 114.732 83.6599 113.206 83.6599 111.287C83.6599 109.887 83.4774 108.737 83.1123 107.836C82.7473 106.935 82.1621 106.262 81.3569 105.817C80.5624 105.361 79.5048 105.133 78.1842 105.133C77.4971 105.133 76.9817 105.212 76.6381 105.371C76.2946 105.52 76.0584 105.79 75.9295 106.182C75.8007 106.575 75.7363 107.158 75.7363 107.931V117.568H77.9587Z" fill="white"/>
<path d="M64.0615 124.517C64.0615 125.122 64.142 125.593 64.3031 125.933C64.4748 126.272 64.7379 126.51 65.0922 126.648C65.4572 126.786 65.9511 126.855 66.5739 126.855V127.539C64.5554 127.454 63.224 127.412 62.5798 127.412C61.9356 127.412 60.6043 127.454 58.5858 127.539V126.855C59.2085 126.855 59.6971 126.786 60.0514 126.648C60.4164 126.51 60.6795 126.272 60.8405 125.933C61.0123 125.593 61.0982 125.122 61.0982 124.517V105.912C61.0982 104.905 60.9103 104.179 60.5345 103.733C60.1695 103.277 59.5199 103.05 58.5858 103.05V102.366C59.273 102.429 59.9547 102.461 60.6311 102.461C62.0484 102.461 63.1918 102.307 64.0615 102V124.517Z" fill="#CEE900"/>
<path d="M53.3047 124.517C53.3047 125.122 53.3852 125.593 53.5463 125.933C53.7181 126.272 53.9811 126.51 54.3354 126.648C54.7005 126.786 55.1943 126.855 55.8171 126.855V127.539C53.7986 127.454 52.4672 127.412 51.823 127.412C51.1788 127.412 49.8475 127.454 47.829 127.539V126.855C48.4517 126.855 48.9403 126.786 49.2946 126.648C49.6596 126.51 49.9227 126.272 50.0837 125.933C50.2555 125.593 50.3414 125.122 50.3414 124.517V105.912C50.3414 104.905 50.1535 104.179 49.7777 103.733C49.4127 103.277 48.7631 103.05 47.829 103.05V102.366C48.5162 102.429 49.1979 102.461 49.8743 102.461C51.2916 102.461 52.435 102.307 53.3047 102V124.517Z" fill="#CEE900"/>
<path d="M44.3678 123.627C44.1101 124.39 43.6967 125.106 43.1277 125.774C42.5694 126.431 41.8661 126.966 41.0179 127.38C40.1805 127.793 39.241 128 38.1996 128C36.632 128 35.2738 127.65 34.125 126.95C32.9869 126.24 32.1173 125.249 31.516 123.977C30.9148 122.694 30.6142 121.22 30.6142 119.556C30.6142 117.669 30.9202 116.031 31.5321 114.642C32.1441 113.253 33.0084 112.188 34.125 111.446C35.2524 110.693 36.5676 110.317 38.0707 110.317C40.0463 110.317 41.5655 110.91 42.6284 112.098C43.7021 113.275 44.2389 115.066 44.2389 117.473H33.9318C33.8566 118.035 33.819 118.729 33.819 119.556C33.819 120.987 34.0552 122.238 34.5276 123.309C35.0108 124.38 35.6389 125.201 36.4119 125.774C37.185 126.346 38.0009 126.632 38.8599 126.632C41.0716 126.632 42.6875 125.546 43.7075 123.372L44.3678 123.627ZM41.0662 116.853C41.1092 115.771 41.0179 114.78 40.7925 113.879C40.567 112.978 40.2127 112.262 39.7295 111.732C39.2464 111.202 38.6505 110.937 37.9419 110.937C37.2655 110.937 36.6428 111.154 36.0737 111.589C35.5047 112.013 35.0215 112.67 34.6243 113.561C34.2378 114.441 33.9908 115.538 33.8835 116.853H41.0662Z" fill="#CEE900"/>
<path d="M23.8675 104.481C25.1237 104.544 26.3906 104.576 27.6682 104.576C28.656 104.576 29.4827 104.544 30.1484 104.481V105.133C28.9244 105.398 28.0548 106.341 27.5394 107.963L21.3068 127.698H20.7753L15.042 110.921L9.79179 127.698H9.26033L2.27079 107.216C1.79838 105.88 1.04145 105.186 0 105.133V104.481C0.880402 104.544 2.05606 104.576 3.52698 104.576C5.10526 104.576 6.29165 104.544 7.08616 104.481V105.133C6.50639 105.175 6.09303 105.281 5.84608 105.451C5.59914 105.62 5.47567 105.891 5.47567 106.262C5.47567 106.612 5.59377 107.147 5.82998 107.868L10.6615 122.387L14.6555 109.776L13.7858 107.216C13.3349 105.87 12.6853 105.175 11.8371 105.133V104.481C12.6316 104.544 13.6999 104.576 15.042 104.576C16.9209 104.576 18.3274 104.544 19.2615 104.481V105.133C18.6924 105.154 18.2576 105.196 17.957 105.26C17.6564 105.313 17.4202 105.419 17.2484 105.578C17.0873 105.737 17.0068 105.976 17.0068 106.294C17.0068 106.654 17.1195 107.179 17.345 107.868L22.0798 122.355L26.1544 109.76C26.5087 108.658 26.6858 107.783 26.6858 107.136C26.6858 106.415 26.4604 105.907 26.0094 105.61C25.5692 105.313 24.8553 105.154 23.8675 105.133V104.481Z" fill="#CEE900"/>
<path d="M49 0C54.1443 -7.28876e-08 59.2382 0.994854 63.9908 2.92775C68.7434 4.86064 73.0616 7.69371 76.6989 11.2652C80.3361 14.8366 83.2211 19.0765 85.1892 23.7427C87.1572 28.4089 88.1697 33.41 88.1688 38.4604V75C77.7806 75 67.8178 70.9486 60.4723 63.7371C53.1267 56.5256 49 46.7448 49 36.5462V0Z" fill="#CEE900"/>
<path d="M91.5959 43.909V24.5122C91.5959 18.0146 94.225 11.7832 98.9049 7.18869C103.585 2.59422 109.932 0.0130667 116.551 0.0130667V19.4098C116.551 25.9074 113.921 32.1389 109.241 36.7333C104.562 41.3278 98.2143 43.909 91.5959 43.909Z" fill="#CEE900"/>
<path d="M91.5959 47.7112H120.211C127.581 47.7112 134.649 50.5856 139.861 55.702C145.072 60.8184 148 67.7578 148 74.9935H119.359C111.993 74.9865 104.932 72.1091 99.7258 66.9935C94.52 61.8778 91.5959 54.9424 91.5959 47.7112Z" fill="#CEE900"/>
</svg>
