<svg width="119" height="89" viewBox="0 0 119 89" fill="none" xmlns="http://www.w3.org/2000/svg">
<path d="M110.466 48.1827C104.532 48.1827 97.0863 47.1738 93.8308 44.9179L95.9509 41.856C98.0933 43.3395 104.332 44.4581 110.466 44.4581C112.26 44.4581 113.492 44.0877 114.129 43.3581C114.749 42.6471 114.933 41.4502 114.691 39.6968C114.404 38.312 109.669 32.3334 104.355 26.6563L107.072 24.1118C109.611 26.8238 117.93 35.9239 118.38 39.1887C118.776 42.0719 118.304 44.2366 116.937 45.8057C115.562 47.3823 113.386 48.1808 110.467 48.1808L110.466 48.1827Z" fill="#013A31"/>
<path d="M85.8364 48.3223C82.136 48.3223 78.4897 47.7992 76.8684 46.5614L79.1281 43.6019C80.6451 44.7634 89.1142 45.0389 93.103 43.7415C94.4358 43.3097 94.7596 43.0938 94.836 43.0212C94.7931 43.0137 94.7838 42.5019 94.7764 42.0905C94.7634 41.3851 94.7448 40.419 94.8583 39.1738C95.292 34.405 99.7983 28.9085 101.494 26.8405L101.742 26.539C102.03 26.1854 102.397 25.8094 102.786 25.4166C104.716 23.4734 104.498 23.2295 103.917 22.5762C102.851 21.3756 96.5261 19.6651 90.1044 18.8386L90.5791 15.1457C92.7885 15.4305 103.949 17.0052 106.702 20.1044C109.823 23.6167 106.743 26.7177 105.427 28.0411C105.133 28.3389 104.848 28.6181 104.63 28.8862L104.373 29.2026C103.018 30.8555 98.8974 35.8811 98.5661 39.5126C98.4712 40.5549 98.486 41.3683 98.4972 42.0235C98.5512 44.9179 97.9463 46.0849 94.2534 47.2836C92.2468 47.937 89.0211 48.3241 85.8382 48.3241L85.8364 48.3223Z" fill="#013A31"/>
<path d="M57.5421 57.3051C57.2146 57.3051 56.8907 57.2679 56.5445 57.1897L57.369 53.5619C57.7171 53.6364 58.3258 53.4465 60.0382 52.877L60.4235 52.7485C62.672 52.0003 64.5668 46.1203 63.4091 34.9858C62.4803 26.083 57.0303 12.9363 49.8418 7.22574C43.4183 2.12194 37.2405 3.61101 32.576 5.47421C28.1721 7.2369 15.8053 16.5511 10.9156 22.9764C8.52374 26.1183 8.69685 27.6651 8.80667 28.0634C8.92021 28.4767 9.17335 28.5976 9.22174 28.6181L7.8276 32.069C6.57306 31.5628 5.59771 30.4348 5.218 29.0518C4.58328 26.7419 5.50465 23.9406 7.95417 20.7223C13.259 13.7479 26.3219 3.96467 31.1911 2.01398C36.3545 -0.0502437 44.1442 -2.05491 52.1554 4.30902C52.7473 4.77993 53.3281 5.2918 53.8958 5.8409C58.6273 5.05169 69.2779 3.9293 76.2244 5.25271C84.8406 6.89442 92.2729 11.5869 93.6019 14.0997C94.5623 15.9163 94.9216 18.6134 91.184 21.1597C88.9802 22.6637 83.3217 29.2231 82.9904 33.5209C82.9811 33.6475 81.9667 46.4069 78.9103 49.4577C77.0229 51.3488 70.9512 53.5396 65.773 52.0729C64.8684 54.0999 63.5319 55.6355 61.598 56.2795L61.2146 56.4079C59.5226 56.9719 58.5193 57.3051 57.5403 57.3051H57.5421ZM66.8675 48.5233C70.6832 49.5861 75.3682 47.7378 76.2803 46.8239C77.2407 45.8653 78.7931 39.5889 79.2807 33.2305C79.761 26.9894 86.8899 19.5813 89.09 18.0811C90.862 16.8749 90.607 16.3947 90.3148 15.8382C89.6112 14.6506 83.4259 10.4105 75.532 8.90653C70.0597 7.86604 61.933 8.48958 56.8609 9.16153C62.4375 16.3389 66.2979 26.7754 67.1132 34.5967C67.5226 38.5242 67.7888 44.0095 66.8712 48.5214L66.8675 48.5233Z" fill="#013A31"/>
<path d="M107.227 53.1543C112.212 52.8453 122.209 45.5359 114.078 44.8769C110.306 44.5717 104.016 45.4986 102.951 45.4986H97.1272C93.8271 45.8039 87.0909 46.4144 86.5586 46.4144C85.8922 46.4144 79.5692 46.4144 78.5697 47.1627C77.5701 47.9109 73.0769 50.5745 72.4124 50.5745H66.4207C65.0619 51.4344 62.1769 53.2548 61.5105 53.6532C60.6785 54.152 59.0144 54.984 58.5156 55.3172C58.1173 55.5834 56.241 58.757 55.3532 60.3093C55.798 62.085 56.751 65.7854 57.0172 66.3847L59.0144 70.878L64.5892 74.5393C63.4798 73.2903 61.06 70.3457 60.2634 68.5476C59.2657 66.301 59.7646 63.9706 60.2634 62.3903C60.7622 60.81 61.8437 58.8947 65.5049 57.4801C69.1662 56.0655 71.3533 54.6508 75.7628 53.6532C80.1723 52.6555 84.2672 53.1543 88.6786 53.1543C93.09 53.1543 99.158 53.6532 107.225 53.1543H107.227Z" fill="#013A31"/>
<path d="M12.3116 74.5616C8.62239 71.5518 2.45576 63.468 0.931327 55.6802C-1.39907 43.7694 0.663294 34.6247 6.90065 29.2361C11.1091 25.9899 22.1097 21.5171 34.2102 27.3506C48.7417 34.3585 58.994 50.4703 59.1299 54.2432C59.2583 57.8821 56.8423 62.1409 53.1698 62.435L52.8739 58.7234C54.1787 58.6192 55.4816 56.3856 55.409 54.3754C55.1913 52.3 46.2959 37.3106 32.5927 30.701C22.1264 25.6549 12.7508 29.4204 9.25338 32.1174C4.09374 36.5791 2.49485 44.2869 4.58514 54.9617C5.87319 61.5508 11.2674 68.9013 14.6662 71.6747L12.3116 74.5579V74.5616Z" fill="#013A31"/>
<path d="M36.1051 89C32.107 89 27.2731 88.034 22.5769 84.9795C11.7718 77.9529 8.9221 70.3196 13.3372 60.2311C15.072 56.2646 18.2865 53.2939 22.6346 51.6373C28.71 49.3181 36.442 49.8169 43.3141 52.9682C56.3565 58.9524 61.6818 65.3666 59.1429 72.0339L55.6641 70.7105C57.8009 65.0948 49.2834 59.803 41.7617 56.3521C35.7831 53.6066 29.1288 53.145 23.9599 55.1143C20.5666 56.4079 18.0706 58.6937 16.7472 61.7221C13.0636 70.139 15.2693 75.7864 24.6076 81.8599C31.8631 86.5784 39.3532 85.4746 42.2997 84.2313L42.5956 84.1345C42.94 84.0526 43.3215 83.9204 43.7292 83.7399L45.2313 87.1461C44.6729 87.3937 44.1275 87.5835 43.6063 87.7194C41.9758 88.3783 39.3085 89 36.1051 89Z" fill="#013A31"/>
<path d="M48.0716 88.3578C46.8282 88.3578 45.7561 88.2536 44.9539 88.0284C42.3126 87.2913 40.1777 85.2159 39.2451 82.4741C38.348 79.8348 38.7258 77.0949 40.2856 74.9376C42.3648 71.1498 48.0363 64.9701 55.1075 67.9036C60.7027 70.2303 67.1783 74.6602 68.1704 78.8948C68.511 80.3448 68.1871 81.7296 67.2602 82.7943C64.6394 85.8041 54.2457 88.356 48.0716 88.3578ZM51.4071 70.8706C46.7464 70.8706 43.5355 76.7468 43.4983 76.8157L43.3475 77.0521C42.4653 78.2284 42.2549 79.7678 42.7668 81.2754C43.2954 82.8297 44.5146 84.0414 45.9497 84.4434C49.6593 85.4802 62.4505 82.6435 64.4496 80.3504C64.5277 80.2592 64.6338 80.1382 64.5408 79.7436C64.055 77.6738 59.7627 73.871 53.6743 71.3415C52.8869 71.0139 52.1275 70.8706 51.4034 70.8706H51.4071Z" fill="#013A31"/>
</svg>
